HIERARCHY
ROOT joint_Root
{
	OFFSET 0.0 0.0 0.0
	CHANNELS 6 Xposition Yposition Zposition Zrotation Xrotation Yrotation 
	JOINT Hips
	{
		OFFSET 4.5925 91.4895 -427.239
		CHANNELS 6 Xposition Yposition Zposition Zrotation Xrotation Yrotation 
		JOINT Spine
		{
			OFFSET 15.7357 0.0 0.0
			CHANNELS 6 Xposition Yposition Zposition Zrotation Xrotation Yrotation 
			JOINT Chest
			{
				OFFSET 8.98455 -0.406207 0.0
				CHANNELS 6 Xposition Yposition Zposition Zrotation Xrotation Yrotation 
				JOINT Neck
				{
					OFFSET 16.3773 0.0 0.0
					CHANNELS 6 Xposition Yposition Zposition Zrotation Xrotation Yrotation 
					JOINT Head
					{
						OFFSET 6.45672 0.0 0.0
						CHANNELS 6 Xposition Yposition Zposition Zrotation Xrotation Yrotation 
						End Site
						{
							OFFSET 0.0 0.0 0.0
						}
					}
				}
				JOINT Shoulder_L
				{
					OFFSET 12.9942 -0.242716 4.98039
					CHANNELS 6 Xposition Yposition Zposition Zrotation Xrotation Yrotation 
					JOINT UpperArm_L
					{
						OFFSET 5.34809 0.0 0.0
						CHANNELS 6 Xposition Yposition Zposition Zrotation Xrotation Yrotation 
						JOINT LowerArm_L
						{
							OFFSET 24.3286 1.87007e-05 0.0
							CHANNELS 6 Xposition Yposition Zposition Zrotation Xrotation Yrotation 
							JOINT Hand_L
							{
								OFFSET 22.2916 0.0 0.0
								CHANNELS 6 Xposition Yposition Zposition Zrotation Xrotation Yrotation 
								End Site
								{
									OFFSET 0.0 0.0 0.0
								}
							}
						}
					}
				}
				JOINT Shoulder_R
				{
					OFFSET 12.9945 -0.242716 -4.98039
					CHANNELS 6 Xposition Yposition Zposition Zrotation Xrotation Yrotation 
					JOINT UpperArm_R
					{
						OFFSET -5.34813 0.0 0.0
						CHANNELS 6 Xposition Yposition Zposition Zrotation Xrotation Yrotation 
						JOINT LowerArm_R
						{
							OFFSET -24.3289 0.000322201 0.0
							CHANNELS 6 Xposition Yposition Zposition Zrotation Xrotation Yrotation 
							JOINT Hand_R
							{
								OFFSET -22.2915 -0.000108084 0.0
								CHANNELS 6 Xposition Yposition Zposition Zrotation Xrotation Yrotation 
								End Site
								{
									OFFSET 0.0 0.0 0.0
								}
							}
						}
					}
				}
			}
		}
		JOINT UpperLeg_L
		{
			OFFSET -2.19248 -6.46944 0.0
			CHANNELS 6 Xposition Yposition Zposition Zrotation Xrotation Yrotation 
			JOINT LowerLeg_L
			{
				OFFSET 39.0811 0.0 -1.23785e-05
				CHANNELS 6 Xposition Yposition Zposition Zrotation Xrotation Yrotation 
				JOINT Foot_L
				{
					OFFSET 40.9854 0.0 -1.26872e-05
					CHANNELS 6 Xposition Yposition Zposition Zrotation Xrotation Yrotation 
					JOINT Toes_L
					{
						OFFSET 11.7543 0.0 0.0
						CHANNELS 6 Xposition Yposition Zposition Zrotation Xrotation Yrotation 
						End Site
						{
							OFFSET 0.0 0.0 0.0
						}
					}
				}
			}
		}
		JOINT UpperLeg_R
		{
			OFFSET -2.19251 6.46944 0.0
			CHANNELS 6 Xposition Yposition Zposition Zrotation Xrotation Yrotation 
			JOINT LowerLeg_R
			{
				OFFSET -39.0811 -0.00228153 -0.0401928
				CHANNELS 6 Xposition Yposition Zposition Zrotation Xrotation Yrotation 
				JOINT Foot_R
				{
					OFFSET -40.9854 0.0 0.0
					CHANNELS 6 Xposition Yposition Zposition Zrotation Xrotation Yrotation 
					JOINT Toes_R
					{
						OFFSET -11.7543 0.0 0.0
						CHANNELS 6 Xposition Yposition Zposition Zrotation Xrotation Yrotation 
						End Site
						{
							OFFSET 0.0 0.0 0.0
						}
					}
				}
			}
		}
	}
}
MOTION
Frames:	4
Frame Time:	0.0333333
0.000000 0.000000 0.000000 0.000000 0.000000 -0.000000 -84.057400 89.058100 178.711000 -56.207300 84.736900 145.287000 15.735700 0.000005 -0.000001 58.470600 84.632000 -57.522900 8.984550 -0.406207 -0.000000 1.440500 -5.663810 1.966190 16.377300 -0.000001 -0.000001 -1.445720 -5.587420 -0.755234 6.456720 -0.000001 -0.000000 -7.868210 -3.337020 -4.705150 12.994200 -0.242716 4.980390 -90.923900 3.602210 -75.605400 5.348090 -0.000007 -0.000001 -55.131600 40.115300 -31.747000 24.328600 0.000019 0.000005 11.461600 12.836400 -42.385100 22.291600 -0.000001 0.000005 13.819900 5.309510 -0.195395 12.994500 -0.242716 -4.980390 88.089200 8.734290 -77.608800 -5.348130 -0.000001 -0.000004 -71.136700 22.644500 12.774400 -24.328900 0.000322 -0.000009 1.032880 8.131990 -7.272560 -22.291500 -0.000108 -0.000004 12.820500 5.313780 -0.317984 -2.192480 -6.469440 -0.000000 -178.721000 -7.621150 3.516760 39.081100 -0.000007 -0.000012 0.021085 -0.038191 28.901800 40.985400 -0.000006 -0.000013 8.903280 6.642140 -74.979200 11.754300 -0.000000 0.000003 -0.156817 -0.278496 -22.164300 -2.192510 6.469440 -0.000001 -172.608000 11.571100 149.484000 -39.081100 -0.002282 -0.040193 -0.032356 0.046365 37.549400 -40.985400 0.000008 0.000006 -1.767470 6.307510 -61.849100 -11.754300 -0.000006 -0.000006 -0.020187 -0.168322 -23.450400
0.000000 0.000000 0.000000 0.000000 0.000000 -0.000000 -80.788400 88.287300 178.972000 -63.967600 84.039200 152.902000 15.735700 0.000005 -0.000001 56.126700 84.576200 -55.185100 8.984550 -0.406207 -0.000000 1.299820 -6.096360 1.952240 16.377300 -0.000001 -0.000001 -1.189300 -5.475210 -0.755506 6.456720 -0.000001 -0.000000 -7.869680 -3.061250 -4.897310 12.994200 -0.242716 4.980390 -90.983800 3.762280 -75.334900 5.348090 -0.000007 -0.000001 -54.590700 41.593600 -30.971800 24.328600 0.000019 0.000005 11.667700 11.937300 -44.953000 22.291600 -0.000001 0.000005 14.597500 5.327660 -0.716889 12.994500 -0.242716 -4.980390 88.023800 8.834480 -77.337500 -5.348130 -0.000001 -0.000004 -70.524600 20.427200 13.714500 -24.328900 0.000322 -0.000009 0.851026 9.248640 -5.287520 -22.291500 -0.000108 -0.000004 12.883800 5.288820 0.383064 -2.192480 -6.469440 -0.000000 -177.847000 -7.770440 4.971610 39.081100 -0.000007 -0.000012 0.018027 -0.030979 30.194300 40.985400 -0.000006 -0.000013 8.458340 8.331150 -75.678500 11.754300 -0.000000 0.000003 -0.025382 -0.195473 -24.574900 -2.192510 6.469440 -0.000001 -169.430000 14.806400 147.712000 -39.081100 -0.002282 -0.040193 -0.018645 0.029408 36.714800 -40.985400 0.000008 0.000006 2.949710 6.179030 -61.525300 -11.754300 -0.000006 -0.000006 -0.020093 -0.167804 -23.429100
0.000000 0.000000 0.000000 0.000000 0.000000 -0.000000 -76.839400 87.331900 179.119000 -70.287200 83.141000 159.344000 15.735700 0.000005 -0.000001 53.206300 84.591800 -52.214400 8.984550 -0.406207 -0.000000 0.961376 -6.534640 2.038730 16.377300 -0.000001 -0.000001 -0.491067 -5.540230 -0.985922 6.456720 -0.000001 -0.000000 -7.453550 -2.993740 -5.524740 12.994200 -0.242716 4.980390 -91.085300 4.028200 -74.907600 5.348090 -0.000007 -0.000001 -54.082100 43.782100 -30.275600 24.328600 0.000019 0.000005 11.594300 11.755500 -45.200400 22.291600 -0.000001 0.000005 14.459100 5.343580 -1.187100 12.994500 -0.242716 -4.980390 87.862700 9.166620 -76.815700 -5.348130 -0.000001 -0.000004 -69.369700 18.603500 14.070600 -24.328900 0.000322 -0.000009 0.600444 10.197400 -3.394590 -22.291500 -0.000108 -0.000004 13.034600 5.260460 1.153740 -2.192480 -6.469440 -0.000000 -176.673000 -8.091480 6.483730 39.081100 -0.000007 -0.000012 0.012220 -0.019123 32.577500 40.985400 -0.000006 -0.000013 7.976110 10.443300 -75.604500 11.754300 -0.000000 0.000003 -0.052379 -0.306158 -29.194900 -2.192510 6.469440 -0.000001 -167.890000 14.694500 147.352000 -39.081100 -0.002282 -0.040193 0.016581 -0.016495 38.878600 -40.985400 0.000008 0.000006 13.631700 1.295440 -60.254400 -11.754300 -0.000006 -0.000006 -0.013721 -0.129606 -21.859100
0.000000 0.000000 0.000000 0.000000 0.000000 -0.000000 -72.385200 86.398000 179.126000 -74.887200 81.888600 164.559000 15.735700 0.000005 -0.000001 50.148500 84.611600 -49.030700 8.984550 -0.406207 -0.000000 0.584099 -6.973600 2.271580 16.377300 -0.000001 -0.000001 0.387093 -5.811880 -1.242090 6.456720 -0.000001 -0.000000 -6.558730 -2.994120 -6.633810 12.994200 -0.242716 4.980390 -91.279500 4.635090 -74.550300 5.348090 -0.000007 -0.000001 -53.877000 46.455100 -29.273100 24.328600 0.000019 0.000005 11.514500 12.563900 -43.123400 22.291600 -0.000001 0.000005 13.647800 5.353820 -1.492880 12.994500 -0.242716 -4.980390 87.551500 9.814840 -75.918500 -5.348130 -0.000001 -0.000004 -67.808100 17.688200 14.005500 -24.328900 0.000322 -0.000009 0.379370 10.696800 -2.048770 -22.291500 -0.000108 -0.000004 13.080000 5.234770 1.831940 -2.192480 -6.469440 -0.000000 -175.068000 -8.237070 7.114670 39.081100 -0.000007 -0.000012 0.005412 -0.007076 37.402200 40.985400 -0.000006 -0.000013 6.890440 13.113800 -73.042500 11.754300 -0.000000 0.000003 -0.117608 -0.486308 -36.968500 -2.192510 6.469440 -0.000001 -169.611000 10.799700 148.063000 -39.081100 -0.002282 -0.040193 -0.142374 0.142851 45.553300 -40.985400 0.000008 0.000006 11.523700 -4.162980 -65.697900 -11.754300 -0.000006 -0.000006 -0.009674 -0.101184 -20.695300
